<svg width="20" height="20" viewBox="0 0 20 20" fill="none" xmlns="http://www.w3.org/2000/svg">
<rect width="20" height="20" rx="4" fill="url(#paint0_linear_39508_91431)"/>
<g clip-path="url(#clip0_39508_91431)">
<path d="M13.9492 9.73122C13.9492 11.4655 12.8708 12.9484 11.348 13.5455C11.8337 13.1258 12.3269 11.935 12.1414 11.8136C11.7725 11.5717 10.6675 13.0413 11.2209 9.99963C10.9042 10.4724 10.0671 11.3901 9.56209 11.6585C10.3915 9.99963 9.68017 7.4791 9.28561 6.95792C10.282 9.17305 7.567 9.70561 7.567 11.8136C7.567 12.5055 7.87383 13.1258 8.35944 13.5455C6.83621 12.9479 5.75781 11.4655 5.75781 9.73122C5.75781 7.99696 6.85471 7.33683 6.85471 5.73915C7.1198 5.84869 7.35549 6.22334 7.35549 7.0134C7.35549 7.38425 7.6737 7.57347 7.91366 7.57347C8.33051 7.57347 8.58944 7.13907 8.42299 6.77913C7.17244 4.07507 9.16611 2.10464 10.4513 1.5C9.12343 5.67275 13.9492 5.87146 13.9492 9.73122Z" fill="url(#paint1_linear_39508_91431)"/>
<path d="M10.451 1.5C10.451 1.5 9.89042 2.91226 10.4808 4.09357C10.7474 4.62613 11.2809 5.27345 11.831 5.82356C12.9701 6.96266 14.4022 8.48115 13.8142 10.6759C13.1811 13.039 11.3425 13.5526 11.3667 13.545C11.6982 13.443 15.0799 9.95837 11.6199 7.29984C7.68809 4.27947 10.451 1.5 10.451 1.5Z" fill="url(#paint2_linear_39508_91431)"/>
</g>
<path d="M5.12915 15.2293H4.56903V17H4.15045V15.2293H3.59034V14.8559H5.12915V15.2293ZM6.88263 17H5.4703V14.8559H6.88263V15.2293H5.88888V15.7322H6.73508V16.1056H5.88888V16.6266H6.88263V17ZM8.67882 16.3676C8.67882 16.7832 8.33251 17.0181 7.88382 17.0181C7.55859 17.0181 7.31166 16.9488 7.10086 16.735L7.37188 16.464C7.5074 16.5995 7.69109 16.6447 7.88984 16.6447C8.13677 16.6447 8.26927 16.5513 8.26927 16.3797C8.26927 16.3044 8.24819 16.2411 8.20302 16.199C8.16086 16.1598 8.11268 16.1387 8.01331 16.1237L7.75433 16.0876C7.57063 16.0605 7.43512 16.0032 7.33876 15.9099C7.23637 15.8075 7.18518 15.669 7.18518 15.4883C7.18518 15.1059 7.46825 14.8378 7.932 14.8378C8.22711 14.8378 8.44092 14.9101 8.62461 15.0878L8.35961 15.3498C8.2241 15.2203 8.06149 15.2022 7.91995 15.2022C7.69711 15.2022 7.5887 15.3257 7.5887 15.4732C7.5887 15.5274 7.60677 15.5847 7.65194 15.6268C7.6941 15.666 7.76336 15.6991 7.85069 15.7111L8.10365 15.7473C8.29938 15.7744 8.42285 15.8286 8.51319 15.9129C8.62762 16.0213 8.67882 16.1779 8.67882 16.3676ZM10.452 15.2293H9.89185V17H9.47328V15.2293H8.91316V14.8559H10.452V15.2293ZM12.4343 17H12.0609L11.2117 15.684V17H10.7931V14.8559H11.1665L12.0157 16.1689V14.8559H12.4343V17ZM14.3463 17H12.934V14.8559H14.3463V15.2293H13.3526V15.7322H14.1988V16.1056H13.3526V16.6266H14.3463V17ZM16.1365 15.2293H15.5764V17H15.1578V15.2293H14.5977V14.8559H16.1365V15.2293Z" fill="white"/>
<defs>
<linearGradient id="paint0_linear_39508_91431" x1="0" y1="10" x2="20" y2="10" gradientUnits="userSpaceOnUse">
<stop stop-color="#FF1577"/>
<stop offset="1" stop-color="#FF9015"/>
</linearGradient>
<linearGradient id="paint1_linear_39508_91431" x1="5.75781" y1="7.52273" x2="13.9492" y2="7.52273" gradientUnits="userSpaceOnUse">
<stop stop-color="white"/>
<stop offset="1" stop-color="white"/>
</linearGradient>
<linearGradient id="paint2_linear_39508_91431" x1="9.50819" y1="7.52273" x2="13.9513" y2="7.52273" gradientUnits="userSpaceOnUse">
<stop stop-color="#B5B5B5" stop-opacity="0.5"/>
<stop offset="1" stop-color="white" stop-opacity="0"/>
</linearGradient>
<clipPath id="clip0_39508_91431">
<rect width="8.19376" height="12.0455" fill="white" transform="translate(5.75781 1.5)"/>
</clipPath>
</defs>
</svg>
