<svg width="36" height="36" viewBox="0 0 36 36" fill="none" xmlns="http://www.w3.org/2000/svg">
<rect x="0.5" y="0.5" width="35" height="35" rx="17.5" stroke="#2C2C2C"/>
<path d="M18 22C23.5229 22 28 20.2092 28 18C28 15.7908 23.5229 14 18 14C12.4771 14 8 15.7908 8 18C8 20.2092 12.4771 22 18 22Z" stroke="white" stroke-width="1.4" stroke-linecap="round" stroke-linejoin="round"/>
<path d="M22 18C22 23.5229 20.2092 28 18 28C15.7908 28 14 23.5229 14 18C14 12.4771 15.7908 8 18 8C20.2092 8 22 12.4771 22 18Z" stroke="white" stroke-width="1.4" stroke-linecap="round" stroke-linejoin="round"/>
<path d="M18 28C23.5228 28 28 23.5228 28 18C28 12.4772 23.5228 8 18 8C12.4772 8 8 12.4772 8 18C8 23.5228 12.4772 28 18 28Z" stroke="white" stroke-width="1.4" stroke-linejoin="round"/>
</svg>
