<svg width="87" height="36" viewBox="0 0 87 36" fill="none" xmlns="http://www.w3.org/2000/svg">
<path d="M30.7513 13.2433L24.7004 15.2145L29.3028 0.147461H2.44262L0 8.14382H18.4953L15.4099 18.2314L9.21338 20.2455L7.29357 26.5363L13.4901 24.5222L13.3958 24.8307L10.0276 35.8525H18.3839L22.772 21.5054L28.8314 19.5341L30.7513 13.2433Z" fill="#F37021"/>
<path d="M48.7409 2.22144V27.8303H61.5968V33.9498H41.2588V2.23859L48.7409 2.22144Z" fill="#F37021"/>
<path d="M68.0076 33.9499C69.2702 24.5649 72.9043 15.6568 78.5666 8.06668H64.6479V2.2644H87V6.48112C83.8438 10.3775 81.2634 14.707 79.3379 19.337C77.4657 24.004 76.2457 28.9068 75.7125 33.907L68.0076 33.9499Z" fill="#F37021"/>
</svg>
