<svg width="20" height="20" viewBox="0 0 20 20" fill="none" xmlns="http://www.w3.org/2000/svg">
<path d="M16.667 7.91683V6.00016C16.667 5.06674 16.667 4.60003 16.4853 4.24351C16.3255 3.92991 16.0706 3.67494 15.757 3.51515C15.4005 3.3335 14.9337 3.3335 14.0003 3.3335H4.33366C3.40024 3.3335 2.93353 3.3335 2.57701 3.51515C2.2634 3.67494 2.00844 3.92991 1.84865 4.24351C1.66699 4.60003 1.66699 5.06674 1.66699 6.00016V14.0002C1.66699 14.9336 1.66699 15.4003 1.84865 15.7568C2.00844 16.0704 2.2634 16.3254 2.57701 16.4852C2.93353 16.6668 3.40024 16.6668 4.33366 16.6668L14.0003 16.6668C14.9337 16.6668 15.4005 16.6668 15.757 16.4852C16.0706 16.3254 16.3255 16.0704 16.4853 15.7568C16.667 15.4003 16.667 14.9336 16.667 14.0002V12.0835M12.5003 10.0002C12.5003 9.61295 12.5003 9.41934 12.5323 9.25835C12.6639 8.59719 13.1807 8.08037 13.8418 7.94885C14.0028 7.91683 14.1964 7.91683 14.5837 7.91683H16.2503C16.6375 7.91683 16.8311 7.91683 16.9921 7.94885C17.6533 8.08037 18.1701 8.59719 18.3016 9.25835C18.3337 9.41934 18.3337 9.61295 18.3337 10.0002C18.3337 10.3874 18.3337 10.581 18.3016 10.742C18.1701 11.4031 17.6533 11.92 16.9921 12.0515C16.8311 12.0835 16.6375 12.0835 16.2503 12.0835H14.5837C14.1964 12.0835 14.0028 12.0835 13.8418 12.0515C13.1807 11.92 12.6639 11.4031 12.5323 10.742C12.5003 10.581 12.5003 10.3874 12.5003 10.0002Z" stroke="#F3F5F7" stroke-width="1.25" stroke-linecap="round" stroke-linejoin="round"/>
</svg>
