<svg width="46" height="46" viewBox="0 0 46 46" fill="none" xmlns="http://www.w3.org/2000/svg">
<path d="M6.73593 5.52404C7.07229 5.42957 7.42535 5.4618 7.77059 5.45874C18.1411 5.45987 28.5115 5.45874 38.8821 5.45987C39.3657 5.44326 39.7952 5.79026 39.9381 6.24375C41.9275 12.1909 43.9051 18.1428 45.8905 24.0918C45.9908 24.4428 45.9461 24.8103 45.95 25.1703C45.9511 29.8517 45.9482 34.5329 45.9518 39.2137C45.9461 39.5314 45.8829 39.8842 45.6329 40.1061C45.406 40.3563 45.045 40.3976 44.7259 40.409C30.3594 40.4063 15.9919 40.4068 1.62535 40.4079C1.19039 40.409 0.668686 40.4521 0.339056 40.1106C-0.0217632 39.787 0.0113568 39.2563 0.0133764 38.8158C0.0133764 34.136 0.0221276 29.4568 0.00956172 24.7771C-0.0353163 24.3052 0.145991 23.8625 0.297095 23.4267C2.20441 17.701 4.11474 11.9753 6.02116 6.24851C6.12752 5.91704 6.39162 5.61187 6.73593 5.52404ZM7.72473 7.45972C5.95002 12.7836 4.17523 18.1086 2.40053 23.4337C6.85692 23.4346 11.3143 23.4355 15.7705 23.4337C16.0777 23.4407 16.422 23.4775 16.6472 23.7126C16.9583 23.9662 16.9963 24.3999 17.0119 24.7733C17.0878 26.5411 18.0279 28.2379 19.4594 29.2705C20.5526 30.0741 21.9275 30.4825 23.2819 30.4084C24.8764 30.3393 26.4267 29.5901 27.4742 28.3871C28.3789 27.367 28.9213 26.0292 28.9592 24.6654C28.9758 24.3414 29.0238 23.9767 29.2801 23.7485C29.5062 23.4882 29.8729 23.4416 30.1965 23.4335C34.6533 23.4355 39.1097 23.4335 43.5649 23.4335C41.7902 18.1096 40.0153 12.7845 38.2415 7.45963C28.0688 7.45779 17.8962 7.45779 7.72473 7.45972ZM2.01534 25.4316C2.01422 29.7583 2.01422 34.0843 2.01534 38.4112C15.9938 38.4121 29.9714 38.4121 43.95 38.4112C43.9511 34.0843 43.9511 29.7583 43.95 25.4316C39.6006 25.4305 35.2517 25.4305 30.9026 25.4316C30.6208 27.8167 29.1807 30.0253 27.1212 31.2577C25.5148 32.2448 23.5511 32.6171 21.6936 32.3101C19.9071 32.0283 18.2337 31.1029 17.0323 29.7532C15.9568 28.5578 15.2575 27.0286 15.0626 25.4316C10.7135 25.4305 6.36434 25.4305 2.01534 25.4316Z" fill="#505050"/>
</svg>
