<svg width="16" height="16" viewBox="0 0 16 16" fill="none" xmlns="http://www.w3.org/2000/svg">
<path d="M8.00033 14.3332C11.4981 14.3332 14.3337 11.4976 14.3337 7.99984C14.3337 4.50203 11.4981 1.6665 8.00033 1.6665M8.00033 14.3332C4.50252 14.3332 1.66699 11.4976 1.66699 7.99984C1.66699 4.50203 4.50252 1.6665 8.00033 1.6665M8.00033 14.3332C9.47309 14.3332 10.667 11.4976 10.667 7.99984C10.667 4.50203 9.47309 1.6665 8.00033 1.6665M8.00033 14.3332C6.52757 14.3332 5.33366 11.4976 5.33366 7.99984C5.33366 4.50203 6.52757 1.6665 8.00033 1.6665M2.00033 5.99984H14.0003M2.00033 9.99984H14.0003" stroke="#202020" stroke-width="0.8" stroke-linecap="round" stroke-linejoin="round"/>
</svg>
