<svg width="21" height="20" viewBox="0 0 21 20" fill="none" xmlns="http://www.w3.org/2000/svg">
<path d="M16.2102 9.93712C16.3708 9.79939 16.4512 9.73053 16.4806 9.64859C16.5065 9.57666 16.5065 9.49799 16.4806 9.42607C16.4512 9.34412 16.3708 9.27526 16.2102 9.13754L10.6348 4.35863C10.3582 4.12155 10.2199 4.00301 10.1028 4.0001C10.0011 3.99758 9.90385 4.04228 9.83955 4.12119C9.76555 4.21198 9.76555 4.39412 9.76555 4.75842V7.58553C8.36052 7.83134 7.07459 8.54329 6.11897 9.61227C5.07712 10.7777 4.50081 12.2859 4.5 13.8491V14.252C5.19067 13.4199 6.05301 12.747 7.02796 12.2793C7.88753 11.867 8.81671 11.6227 9.76555 11.5583V14.3162C9.76555 14.6805 9.76555 14.8627 9.83955 14.9535C9.90385 15.0324 10.0011 15.0771 10.1028 15.0746C10.2199 15.0716 10.3582 14.9531 10.6348 14.716L16.2102 9.93712Z" stroke="white" stroke-width="1.2" stroke-linecap="round" stroke-linejoin="round"/>
</svg>
